
<svg xmlns="http://www.w3.org/2000/svg" version="1.1" xmlns:xlink="http://www.w3.org/1999/xlink" preserveAspectRatio="none" x="0px" y="0px" width="176px" height="95px" viewBox="0 0 176 95">
<defs/>

<g id="_____1">
<g transform="matrix( 1, 0, 0, 1, -26.85,-85.15) ">
<g>
<g>
<path fill="#DB565B" stroke="none" d="
M 73 106.55
Q 71.7 106.55 71.7 107.75
L 70.55 134.45 71 138.2 71.8 140.25
Q 72.3 140.95 73.35 141.15
L 76 141.3 77.75 141.15
Q 79 140.95 79.15 140.4
L 81.05 130.7 82.55 126
Q 83.4 123.7 84.75 121.8
L 84.6 128.35
Q 84.6 134.1 85.7 137.05 86.8 139.95 90.85 139.95 93.5 139.95 95.3 138.65 96.7556640625 137.5177734375 97.75 136 97.75 136.0869140625 97.75 136.15 97.75 137.8 98.95 138.9 100.2 139.95 101.95 140.55
L 105.55 141.4 108.65 141.65 111.3 141.55 115 140.85
Q 116.85 140.3 118.25 139.15 119.7 137.95 119.7 135.8 119.7 134 117.6 132.1
L 108.25 124.2
Q 106.1 122.25 106.1 120.45 106.1 118.35 107.4 116.55 108.65 114.7 111.8 114.7
L 112.95 115 114.7 116.45 115.4 116.75
Q 116.65 116.75 117.45 115.95
L 118.8 114.25 119.5 112.2 119.7 110.65
Q 119.7 108.85 118.15 108.2 116.65 107.55 115.15 107.55
L 110.6 108.1
Q 107.75 108.65 105 109.9 102.25 111.15 100.25 113.3 98.2 115.45 98.2 118.65 98.2 120.9 99.2 122.75 100.3 124.65 101.85 126.25
L 111.2 134.2
Q 112.25 135.4 112.25 136.6 112.25 137.9 111.05 138.35
L 109.1 138.9
Q 107.5 138.9 106.2 138.15
L 101.95 135.1
Q 101 134.35 100 134.35
L 98.5 134.75
Q 99.4248046875 132.99375 99.9 131.05
L 100.6 127 100.6 126.8 100.3 125.6
Q 100.05 125 99.25 125 98 125 97.9 126.7
L 97.35 129.6 96.2 132.5 94.75 134.7
Q 93.95 135.65 92.95 135.65 91.6 135.65 91.15 133.75
L 90.7 129.55 90.95 117.7 90.4 115.2
Q 90 114 89.1 113.3 88.25 112.55 86.65 112.55 85.35 112.55 84.2 114
L 81.9 117.7 78.4 126.3
Q 78.25 126.7 78.1 127
L 78.1 108.75
Q 78.1 108.2 77.45 107.8
L 75.9 107.1 74.2 106.7 73 106.55
M 54.65 85.15
Q 53.05 85.15 51.5 86.35 50 87.5 48.65 89.35
L 46.15 93.7 44.15 98.5 42.9 103.3 42.45 107.3 42.45 110.4
Q 42.45 112.7 43.2 115.3 43.95 117.95 45.5 120.15 47.1 122.4 49.45 123.9 51.9 125.35 55.1 125.35
L 56.45 125.25
Q 56.45 127.75 55.6 130.45 54.65 133.25 52.8 135.55 50.95 137.9 48.2 139.4 45.4 140.95 41.6 140.95 37.3 140.95 34.4 139.05 31.55 137.2 31.55 132.85 31.55 131.4 32.35 130.4
L 35.85 126.15
Q 36.7 124.85 36.7 122.85
L 36.2 121.1
Q 35.75 120.25 34.15 120.25 32.4 120.25 31.1 121.1 29.75 122 28.75 123.35 27.85 124.75 27.35 126.6
L 26.85 130.4
Q 26.85 132.75 27.5 135.35 28.1 137.9 29.9 140.05 31.7 142.2 34.9 143.6 38.1 145 43.25 145
L 44.4 145
Q 50.35 145 54.15 143.05 58 141.15 60.2 137.85 62.4 134.55 63.3 130.35 64.2 126.1 64.2 121.5
L 64.2 91.75 63.85 89.3 63.95 88.05
Q 64.05 87.8 64.2 87.55 64.2 86.7 63.6 86.35
L 62.4 85.85 56.1 85.4 54.65 85.15
M 57 95.6
L 56.45 98.4 56.45 119.45 55.15 119.7
Q 54.55 119.8 54.15 119.8 52.05 119.8 50.85 118.2 49.6 116.55 48.95 114.4
L 48.1 110 48.2 102.7 49.1 98.05
Q 49.8 95.8 51.05 94.15 52.3 92.55 54.3 92.55 55.85 92.55 56.4 93.45 57 94.4 57 95.6
M 195.6 109.05
Q 194.95 107.65 193.85 106.8
L 191.25 105.4 187.9 104.5 184.25 102.85 183.3 102.6
Q 180.05 102.6 177.9 105 175.8 107.4 174.55 111.1 173.25 114.85 172.75 119.35
L 172.3 128.1 172.4 129.85 172.1 131.15 171.1 133.95 169.65 136.45
Q 168.8 137.55 167.75 137.55 166.7 137.55 166.1 136.65
L 165.2 134.5 164.7 131.75 164.75 124.65
Q 164.9 122.85 165.85 120.55
L 165.85 120.15 165.45 119.1 164.5 118.5 163.55 118.1
Q 163.3 118 163.1 117.8
L 162.8 110.65
Q 162.6 108.9 161.85 107.45 161.05 105.95 159.15 104.9
L 156.55 104.15 153 102.55 150.3 102.25
Q 147.2 102.25 145.05 104.45 142.9 106.7 141.55 110.35 140.2 114.1 139.6 119 139.2681640625 121.8955078125 139.1 125
L 138.65 126.45 137.6 130.85 136.15 134.7
Q 135.35 136.45 134.35 137.45 133.35 138.4 132.2 138.4 131.4 138.4 130.75 137.6
L 129.85 135.5 129.3 132.55 129.1 129.25 129.7 108.3
Q 129.8 107.05 129.95 106.2 130.1 105.85 131.6 105.65
L 140.25 104.9 141.95 105.15
Q 142.15 105.3 142.4 105.4
L 142.9 105
Q 143 104.7 143.1 104.4 143.1 103.25 142.1 102.65
L 139.7 101.8 130.95 101.25
Q 130.05 100.95 130.05 100.45
L 131 88.75
Q 131 88.25 130.05 87.75
L 127.85 87 125.4 86.5 123.85 86.35
Q 123.45 86.35 123.2 87.4
L 122.5 100
Q 122.4 101.05 122.05 101.05
L 115.1 101.3
Q 112.75 101.45 112.75 102.6 112.75 103.95 114.15 104.55
L 120.65 105.95
Q 122.1 106.2 122.1 106.95
L 121.45 125.95
Q 121.45 129.8 122.1 133.2 122.75 136.5 123.95 139.05 125.15 141.5 126.95 142.9 128.75 144.3 131.15 144.3 133.7 144.3 135.6 142.2 137.5 140.15 138.8 137.4 139.2802734375 136.383984375 139.7 135.35 140.084375 137.1728515625 140.75 138.8 141.65 140.95 143.1 142.35 144.6 143.75 146.75 143.75
L 147.85 143.8 149.2 144.3 150 144.4
Q 151.85 144.4 153.25 143.25 154.7 142.1 155.8 140.5
L 157.6 137 158.8 133.65
Q 159.25 137.45 161.3 139.5 163.35 141.6 166 141.6 167.8 141.6 169.3 140.5 170.8 139.4 171.9 137.85
L 172.9 136.05
Q 173.284765625 137.8796875 173.95 139.35 174.9 141.4 176.6 142.6 178.25 143.75 180.75 143.9
L 183.6 144.5
Q 184.95 144.5 186.05 143.5
L 188 141.3 190.55 136.45 190.15 144.15 185.45 148.25
Q 183.4 150.3 181.65 152.95 179.85 155.65 178.6 158.55 177.35 161.45 176.65 164.55 176 167.7 176 170.65 176 173.6 177.25 175.35 178.55 177.15 180.6 178.05 182.6 178.95 185.1 179.15
L 189.8 179.35
Q 192.45 179.35 193.9 177.7 195.4 176.05 196.25 173.3 197.05 170.6 197.25 167.1
L 197.45 145.7
Q 197.45 145.2 197.9 145.2
L 199.7 145.35 201.25 145
Q 202.1 144.65 202.1 143.75 202.1 142.75 200.7 142.25
L 198.5 141.75
Q 198.3 141.8 198.2 141.8 197.95 141.85 197.8 141.85
L 197.45 141.85 197.8 124.9 198.3 122.6
Q 198.5 122.2 198.8 121.75 199.05 121.25 199.2 120.9 199.2 120.15 198.65 119.95
L 196.3 119.1
Q 195.75 118.8 195.75 118.1
L 196.25 112.55
Q 196.25 110.45 195.6 109.05
M 183.15 110
Q 184.65 108.65 186.4 108.65 187.65 108.65 188.5 109.4 189.4 110.15 189.8 111.3
L 190.45 113.65 190.65 115.9 190.5 117.7 189.4 120.65 188.5 128.65 187.1 133.6
Q 186.15 136 184.7 137.6 183.25 139.25 181.4 139.25 180.3 139.25 179.65 138.15
L 178.6 135.45 178.05 127.9
Q 178.05 123.4 178.7 119.85 179.4 116.3 180.55 113.8 181.65 111.35 183.15 110
M 183.1 156.85
Q 184.45 153.85 186.35 151.2 188.2 148.6 190.25 147.15
L 189.95 165.25 189.1 169.65
Q 188.35 171.8 187.15 173.4 185.9 174.95 184 174.95 182.9 174.95 182.15 174.35
L 181 172.8 180.35 170.75 180.2 168.8
Q 180.2 166.25 181 163.1 181.75 159.95 183.1 156.85
M 153.4 109.35
Q 154.95 109.35 155.85 110.15 156.75 111 157.2 112.15
L 157.85 114.7 158 117.8
Q 157.8 118.15 157.35 118.4 156.75 118.8 156.55 120.35
L 154.95 133.2
Q 154.25 136.15 152.85 138.2 151.45 140.2 148.85 140.2 147.75 140.2 147.1 139
L 146 135.9 145.4 128.6 145.65 123.45
Q 145.95 120.15 146.85 117.05 147.75 113.95 149.3 111.65 150.9 109.35 153.4 109.35 Z"/>
</g>
</g>
</g>
</g>
</svg>
